<?xml version="1.0" encoding="utf-8"?>
<!-- Generator: Adobe Illustrator 21.1.0, SVG Export Plug-In . SVG Version: 6.00 Build 0)  -->
<svg version="1.1" id="Layer_1" xmlns="http://www.w3.org/2000/svg" xmlns:xlink="http://www.w3.org/1999/xlink" x="0px" y="0px"
	 width="85.4px" height="60px" viewBox="0 0 85.4 60" style="enable-background:new 0 0 85.4 60;" xml:space="preserve">
<style type="text/css">
	.st0{fill:#000;}
</style>
<g>
	<g>
		<path class="st0" d="M85.2,57.3l-12.7-22c-0.3-0.6-0.9-0.9-1.6-0.9c-0.6,0-1.3,0.3-1.6,0.9l-12.7,22c-0.3,0.6-0.3,1.3,0,1.8
			c0.3,0.6,0.9,0.9,1.6,0.9h25.4c0.6,0,1.3-0.3,1.6-0.9C85.5,58.5,85.5,57.8,85.2,57.3z M61.4,56.4l9.5-16.5l9.5,16.5H61.4z"/>
		<path class="st0" d="M68.1,28.9l-16.2-28C51.6,0.3,51,0,50.3,0H18c-0.6,0-1.3,0.3-1.6,0.9l-16.2,28c-0.3,0.6-0.3,1.3,0,1.8
			l16.2,28c0.3,0.6,0.9,0.9,1.6,0.9h32.4c0.6,0,1.3-0.3,1.6-0.9l16.2-28C68.4,30.2,68.4,29.5,68.1,28.9z M49.3,56H19L3.9,29.8
			L19,3.6h30.3l15.1,26.2L49.3,56z"/>
	</g>
</g>
</svg>
